<svg xmlns="http://www.w3.org/2000/svg" width="288" height="162" fill="none"><path fill="#54b8f3" d="M197.48 118.3c7.08-9.28 13.52-20.01 16.7-37.97 2.46-13.93 1.7-49.19 1.7-49.19s-13.58.13-23.36-6.79C182.35 17.17 182.87 4 182.87 4h-76.75s.52 13.17-9.65 20.35c-9.78 6.92-23.36 6.8-23.36 6.8s-.76 35.25 1.7 49.18c3.18 17.96 9.62 28.69 16.7 37.97 19.38 25.39 53 39.4 53 39.4s33.6-14.01 52.97-39.4Z"/><path fill="#81eff3" d="m181.25 5.49-73.64.15L106.12 4h76.75l-1.62 1.49Z"/><path fill="#72f0f3" d="m91.33 36.89 19.48-21.93-3.2-9.32L106.12 4s.52 13.17-9.65 20.35c-9.78 6.92-23.36 6.8-23.36 6.8l2.2 1.46 16.02 4.28Z"/><path fill="#a571c6" d="m213.73 32.64-68.82 7.04-.4 118.02s33.6-14.01 52.97-39.4c7.08-9.28 13.52-20.01 16.7-37.97 2.43-13.76 1.71-48.35 1.7-49.17l-2.14 1.48h-.01Z"/><path fill="#6084f3" d="m215.88 31.16-2.14 1.48-6.81.7-1.69 34.75 9.99 2.83c1.14-15.97.66-39.09.65-39.76ZM123.98 138.92l-4 5.2a159.28 159.28 0 0 0 24.52 13.59v-2.3l-20.52-16.5Z"/><path fill="#5eccf3" d="m84.64 87.3.98-47.85-12.5-8.3s-.77 35.25 1.7 49.18c0 .1.03.18.04.28l9.78 6.7Z"/><path fill="#33a0f3" d="m174.05 33.83 39.69-1.2 2.14-1.49s-13.58.13-23.36-6.79C182.35 17.17 182.86 4 182.86 4l-1.6 1.49-7.21 28.35Z"/><path fill="#0f70f2" d="M192.52 24.35C182.35 17.17 182.86 4 182.86 4l-1.6 1.49-1.67 6.54 9.9 15.5 3.1-3.12-.07-.05Z"/><path fill="#0d7df3" d="M194.8 27.5c-7.3-4.29-9.94-8.14-12.07-14.32l-12.58 13.56 14 11.2L194.8 27.5Z"/><path fill="#0046f3" d="M182.73 13.18c-.83-2.9-1.46-6.4-1.48-7.7-2.23 2.71-8.92 10.73-8.92 10.73l1.7 7.84 8.7-10.86Z"/><path fill="#0560f3" d="m189.72 102.54-45.15 39.14-.07 13.73s24.82-10.7 43.44-28.87c14.88-14.54 21.8-30.67 24.38-45.82 3.16-18.54 1.42-48.08 1.42-48.08L201.9 40.7l-5.24 43.8-6.95 18.03v.01Z"/><path fill="#1045f3" d="m204.1 105.13-6.36-3.6-41.66 38.35 4.98 6.84c8.22-4.9 18.22-11.72 26.88-20.18a85.76 85.76 0 0 0 16.15-21.41Z"/><path fill="#2548f3" d="M144.54 155.4c.8-.36 25.09-10.98 43.4-28.86.22-.2.43-.43.65-.65l-4.72-4.37-39.3 21.18-.03 12.7Z"/><path fill="#0026e3" d="m193.86 45.43-18.39 67.9-30.86 24.62-.06 11.3c6.9-3.14 36.38-17.16 51.24-39.44 11.12-16.67 12.54-32.93 12.76-47.32.2-12.93.07-24.55-.2-26.16l-5.7 3.86-8.78 5.24h-.01Z"/><path fill="#0010cf" d="m208.56 60.42-11.64 9-21.46 43.92-30.86 24.6-.02 3.84 9.32 2.84c11.93-6.38 30.9-18.33 41.88-34.8 11.12-16.68 12.54-32.93 12.76-47.32 0-.7.02-1.39.03-2.07Z"/><path fill="#003dce" d="m202.41 97.44-9.12 1.35-17.75 14.25-.08.3-30.86 24.6-.05 11.31c6.9-3.14 36.37-17.16 51.23-39.44a72.48 72.48 0 0 0 6.64-12.37Z"/><path fill="#1989f3" d="M75.31 32.62s-.67 28.87 1.07 44.04l14.7 8.5-3.7-44.47-12.07-8.07Z"/><path fill="#0663f3" d="M76.9 80.35c3.08 17.42 9.33 27.83 16.2 36.83 18.72 24.53 51.14 38.1 51.4 38.21l.1-15.52-49.24-63.03-19.84-11.2c-.07 3.98.95 12.24 1.38 14.7Z"/><path fill="#3cb0f3" d="m202.63 40.19 11.1-7.55c-6.6-.41-13.3-2-18.93-5.14l-9.96 8.59c6.39 6.2 17.8 4.09 17.8 4.09Z"/><path fill="#39abf3" d="m87.85 30.13 18.17 11.91 11.88-12.83s-10.13-8.96-13.37-11.75c-1.18 2.04-4.47 8.36-16.67 12.68v-.01Z"/><path fill="#2194f3" d="m181.25 5.49-36.53.1-.1 10.69 27.71-.07 8.92-10.72Z"/><path fill="#3cb0f3" d="m117 16.21 27.68.09V5.6l-37.08.04 9.4 10.57Z"/><path fill="#1888f3" d="M107.6 5.64c-.14 4.1-1.92 9.74-3.07 11.82l11.32 9.97 1.16-11.21s-7.73-8.94-9.4-10.57Z"/><path fill="#49bef3" d="M75.32 32.63c4.34 2.92 11.34 7.56 11.34 7.56l16.44-.12s-10.7-6.93-15.25-9.94a68.24 68.24 0 0 1-12.53 2.5Z"/><path fill="#0f81f3" d="M86.67 40.19c0 9.42-.82 31.59 2.2 44.06 3.84 15.93 9.75 22.7 16.65 30.43 15.44 17.31 39.06 27.4 39.06 27.4s23.77-10.08 39.22-27.4c6.9-7.73 12.8-14.5 16.65-30.44 3.01-12.46 2.2-34.63 2.2-44.05-4-.87-12.39-1.8-19.66-6.81-7.98-5.51-10.65-17.17-10.65-17.17h-55.32s-2.28 11.5-10.26 17.01c-7.28 5.02-16.09 6.1-20.09 6.97Z"/><path fill="#000" d="M88.66 41.5c0 9.12-.8 30.6 2.1 42.7 3.72 15.44 9.43 22 16.09 29.49 14.92 16.78 37.72 26.55 37.72 26.55s22.95-9.77 37.88-26.55c6.66-7.5 12.36-14.05 16.08-29.5 2.9-12.08 2.11-33.57 2.11-42.7-3.86-.84-12-2.32-19.02-7.17-7.71-5.35-10.72-16.42-10.72-16.42h-52.51s-3.02 11.08-10.73 16.42c-7.03 4.85-15.16 6.34-19.02 7.17h.02Z"/><path fill="#904DE1" d="m144.58 81.03-.02 23.7 53.5-40.43c.18-7.21.12-15.22.12-21.1a72.08 72.08 0 0 1-9-2.67l-44.52 29.5-.08 11.01v-.01Z"/><path fill="#29b3f3" d="M90.43 43.05s-.19 2.25-.22 15.56c-.04 18.01 1.81 34.04 14.39 49.73 15.36 19.16 39.5 29 39.91 29.13v.03c.07.02 30.67-18.56 39.05-29.16 5.67-7.18 11.91-17.85 13.72-31.45 1.07-8.08.88-23.83.88-33.68-4.03-.9-12.71-3.32-18.75-7.55-7.56-5.31-10.37-15.7-10.37-15.7l-24.4.03-24.6-.03s-3.28 10.64-9.82 15.33c-6.68 4.8-15.57 6.86-19.78 7.76Z"/><path fill="#3985f3" d="M144.64 19.98s-.53 117.34-.12 117.48v.02c.07.03 19.7-6.57 38.21-27.35 10.9-12.22 17.23-25.56 15.87-67.17-4.04-.88-13.15-3.09-19.19-7.32-7.56-5.3-10.37-15.7-10.37-15.7l-24.4.04Z"/><path fill="#4bd4f3" d="M144.63 20.12v-.14l-24.6-.03s-3.27 10.63-9.8 15.33a32.31 32.31 0 0 1-5.39 3.06c-5.36 2.8-11.26 3.9-14.53 4.6 0 0-.08 1.9-.05 15.13v1.7l48.4 30.84 5.9.4.07-70.9Z"/><path fill="#3baff3" d="m144.58 81.03-.02 23.7 54-40.93c.43-7.1.1-14.94.1-20.84-2.09-.46-5.9-1.12-9.48-2.44l-44.52 29.5-.08 11.01Z"/><path fill="#58b7f3" d="M180.58 100.63c7.13-10.02 10.93-21.46 10.4-51.65a91.05 91.05 0 0 0 7.18-5.79c-4.04-.89-12.7-3.32-18.74-7.54-7.56-5.3-10.37-15.7-10.37-15.7l-24.4.04-.12 108.3c3.23-1.28 23.45-9.95 36.05-27.65Z"/><path fill="#51d2f3" d="m144.63 19.99-.08 84.87 45.9-34.94c.49-5.81.66-12.66.52-20.93a86.97 86.97 0 0 0 7.46-6.05c-4.12-.92-12.11-2.89-18.06-7.05-7.57-5.3-11-16.04-11-16.04l-24.73.13h-.01Z"/><path fill="#43c5f3" d="m144.58 81.03-.02 23.7 45.9-34.68c.47-5.84.67-12.74.51-21.07 4.9-3.65 7.1-5.7 7.46-6.04a70.28 70.28 0 0 1-9.17-2.56l-44.6 29.65-.08 11.01v-.01Z"/><path fill="#4cd3f3" d="M90.44 43.04s-.06.63-.11 3.2c1.11.76 3.7 2.49 7.85 5.13-.35 19.82 1.56 36.3 10.43 49.33 13.38 19.68 35.1 27.6 35.46 27.73v.01l.48-.17.08-108.3-24.6-.02s-3.27 10.63-9.8 15.33c-6.69 4.79-15.58 6.86-19.8 7.76Z"/><path fill="#71eef3" d="M90.31 42.94s-.02.58-.04 3.26c1.07.74 3.67 2.48 7.9 5.17-.07 4.72-.03 9.25.21 13.6l40.29 25.65 5.9.4.06-70.9V20l-24.6-.03s-3.27 10.63-9.8 15.32a32.31 32.31 0 0 1-5.39 3.07c-5.36 2.8-11.26 3.9-14.53 4.6Z"/><path fill="#71eef3" d="m144.58 80.92.06-60.94-24.6-.03s-4.03 10.88-10.57 15.57c-6.67 4.78-14.85 6.6-19.05 7.5 0 0-.1.74-.1 3.2l54.26 34.7Z"/><path fill="#000088" d="M151.74 52.4s-4.06-.82-7.2-.7c.07 9.82 0 40.8 0 40.8s3.53.12 9.05-1.16c3.47-.8 7.36-3 7.36-3l.89 1.39s-.85.66-2.36 1.39c-1.16.56-2.6 1.11-2.6 1.11l3.3 5.5s3.47-.33 8.72-2.97c5-2.5 7.11-5.14 7.11-5.14s.64-12.39-2.05-21.22c-2.95-9.67-7.5-15.23-7.5-15.23s-1.74-1.41-6.66-2.9c-4.8-1.45-6.28-1.25-6.28-1.25l-1.8 3.38h.02Z"/><path fill="#0027c4" d="M167.8 55.05c-.8-1.2-1.34-1.87-1.34-1.87s-1.74-1.41-6.66-2.9c-4.8-1.45-6.28-1.25-6.28-1.25l-1.8 3.38s-4.05-.83-7.19-.7c.03 5.94.03 11.93.03 17.89l23.24-14.56v.01Z"/><path fill="#0017c3" d="m159.04 95.83 1.14 1.9s3.46-.34 8.72-2.97c5-2.51 7.1-5.14 7.1-5.14s.17-3.11-.01-7.32l-16.95 13.53Z"/><path fill="#43c5f3" d="M155.4 81.91c3.1 0 5.62-2.86 5.62-6.4 0-3.53-2.51-6.4-5.62-6.4-3.1 0-5.62 2.87-5.62 6.4 0 3.54 2.52 6.4 5.62 6.4Z"/><path fill="#000094" d="M122.67 53.17s-4.55 5.55-7.5 15.22c-2.68 8.83-2.05 21.23-2.05 21.23s2.11 2.63 7.11 5.14c5.26 2.63 8.72 2.96 8.72 2.96l3.3-5.5s-1.43-.55-2.59-1.1c-1.52-.74-2.36-1.4-2.36-1.4l.89-1.4s2.45 1.84 7.36 3.01c5.76 1.38 9.04 1.17 9.04 1.17s-.06-30.98 0-40.8c-3.14-.13-7.19.7-7.19.7l-1.8-3.38s-1.47-.2-6.28 1.25c-4.92 1.49-6.66 2.9-6.66 2.9h.02Z"/><path fill="#004ec4" d="m116.15 65.47 28.43 17.91c-.02-9.95-.03-25.29.01-31.68-3.14-.13-7.19.7-7.19.7l-1.8-3.38s-1.47-.2-6.28 1.25c-4.92 1.49-6.66 2.9-6.66 2.9s-3.63 4.45-6.5 12.3Z"/><path fill="#0027c4" d="M115.17 68.4a44.5 44.5 0 0 0-1.45 7l26.1 16.76c3.07.45 4.77.34 4.77.34l-.01-10.84-27.6-18.33a55.84 55.84 0 0 0-1.82 5.07Z"/><path fill="#71eef3" d="M133.72 81.91c3.1 0 5.62-2.86 5.62-6.4 0-3.53-2.52-6.4-5.62-6.4s-5.62 2.87-5.62 6.4c0 3.54 2.52 6.4 5.62 6.4Z"/></svg>
